<?xml version="1.0" encoding="UTF-8" standalone="no"?>
<svg width="40" height="40" viewBox="0 0 40 40" xmlns="http://www.w3.org/2000/svg">
  <defs>
    <pattern id="japanese-pattern" width="40" height="40" patternUnits="userSpaceOnUse">
      <!-- Background -->
      <rect width="40" height="40" fill="#1f2937" fill-opacity="0.3"/>
      
      <!-- Seigaiha (Wave) Pattern -->
      <circle cx="0" cy="0" r="3" stroke="#4B5563" stroke-width="0.5" fill="none" opacity="0.1"/>
      <circle cx="0" cy="0" r="6" stroke="#4B5563" stroke-width="0.5" fill="none" opacity="0.1"/>
      <circle cx="0" cy="0" r="9" stroke="#4B5563" stroke-width="0.5" fill="none" opacity="0.1"/>
      
      <circle cx="20" cy="0" r="3" stroke="#4B5563" stroke-width="0.5" fill="none" opacity="0.1"/>
      <circle cx="20" cy="0" r="6" stroke="#4B5563" stroke-width="0.5" fill="none" opacity="0.1"/>
      <circle cx="20" cy="0" r="9" stroke="#4B5563" stroke-width="0.5" fill="none" opacity="0.1"/>
      
      <circle cx="40" cy="0" r="3" stroke="#4B5563" stroke-width="0.5" fill="none" opacity="0.1"/>
      <circle cx="40" cy="0" r="6" stroke="#4B5563" stroke-width="0.5" fill="none" opacity="0.1"/>
      <circle cx="40" cy="0" r="9" stroke="#4B5563" stroke-width="0.5" fill="none" opacity="0.1"/>
      
      <circle cx="0" cy="20" r="3" stroke="#4B5563" stroke-width="0.5" fill="none" opacity="0.1"/>
      <circle cx="0" cy="20" r="6" stroke="#4B5563" stroke-width="0.5" fill="none" opacity="0.1"/>
      <circle cx="0" cy="20" r="9" stroke="#4B5563" stroke-width="0.5" fill="none" opacity="0.1"/>
      
      <circle cx="20" cy="20" r="3" stroke="#4B5563" stroke-width="0.5" fill="none" opacity="0.1"/>
      <circle cx="20" cy="20" r="6" stroke="#4B5563" stroke-width="0.5" fill="none" opacity="0.1"/>
      <circle cx="20" cy="20" r="9" stroke="#4B5563" stroke-width="0.5" fill="none" opacity="0.1"/>
      
      <circle cx="40" cy="20" r="3" stroke="#4B5563" stroke-width="0.5" fill="none" opacity="0.1"/>
      <circle cx="40" cy="20" r="6" stroke="#4B5563" stroke-width="0.5" fill="none" opacity="0.1"/>
      <circle cx="40" cy="20" r="9" stroke="#4B5563" stroke-width="0.5" fill="none" opacity="0.1"/>
      
      <circle cx="0" cy="40" r="3" stroke="#4B5563" stroke-width="0.5" fill="none" opacity="0.1"/>
      <circle cx="0" cy="40" r="6" stroke="#4B5563" stroke-width="0.5" fill="none" opacity="0.1"/>
      <circle cx="0" cy="40" r="9" stroke="#4B5563" stroke-width="0.5" fill="none" opacity="0.1"/>
      
      <circle cx="20" cy="40" r="3" stroke="#4B5563" stroke-width="0.5" fill="none" opacity="0.1"/>
      <circle cx="20" cy="40" r="6" stroke="#4B5563" stroke-width="0.5" fill="none" opacity="0.1"/>
      <circle cx="20" cy="40" r="9" stroke="#4B5563" stroke-width="0.5" fill="none" opacity="0.1"/>
      
      <circle cx="40" cy="40" r="3" stroke="#4B5563" stroke-width="0.5" fill="none" opacity="0.1"/>
      <circle cx="40" cy="40" r="6" stroke="#4B5563" stroke-width="0.5" fill="none" opacity="0.1"/>
      <circle cx="40" cy="40" r="9" stroke="#4B5563" stroke-width="0.5" fill="none" opacity="0.1"/>
    </pattern>
  </defs>
  <rect width="40" height="40" fill="url(#japanese-pattern)"/>
</svg>
